<svg width="27" height="24" viewBox="0 0 27 24" fill="none" xmlns="http://www.w3.org/2000/svg">
<path d="M11.3114 9.77142C11.1083 9.77142 10.9134 9.84366 10.7698 9.97226C10.6261 10.1009 10.5454 10.2753 10.5454 10.4571V14.5714C10.5453 14.6673 10.5677 14.7622 10.611 14.8498C10.6544 14.9375 10.7179 15.0161 10.7973 15.0804C10.8767 15.1448 10.9703 15.1935 11.072 15.2235C11.1738 15.2534 11.2814 15.264 11.388 15.2544C11.5044 14.747 11.7434 14.2834 12.0774 13.8857V10.4571C12.0774 10.2753 11.9967 10.1009 11.8531 9.97226C11.7094 9.84366 11.5146 9.77142 11.3114 9.77142ZM3.65132 18H11.3114V19.3714H3.65132C2.83869 19.3714 2.05934 19.0824 1.48472 18.5681C0.910105 18.0537 0.587288 17.356 0.587288 16.6286V2.91427C0.587288 2.18682 0.910105 1.48917 1.48472 0.974781C2.05934 0.460396 2.83869 0.171417 3.65132 0.171417H18.9715C19.7841 0.171417 20.5635 0.460396 21.1381 0.974781C21.7127 1.48917 22.0355 2.18682 22.0355 2.91427V9.83999C21.7834 9.79427 21.5268 9.7713 21.2695 9.77142H20.5035V2.91427C20.5035 2.55055 20.3421 2.20172 20.0548 1.94453C19.7675 1.68734 19.3778 1.54285 18.9715 1.54285H3.65132C3.24501 1.54285 2.85533 1.68734 2.56802 1.94453C2.28071 2.20172 2.11931 2.55055 2.11931 2.91427V16.6286C2.11931 16.9923 2.28071 17.3411 2.56802 17.5983C2.85533 17.8555 3.24501 18 3.65132 18ZM17.4395 4.97142V9.83999C16.8726 9.94285 16.3517 10.1568 15.9075 10.4571V4.97142C15.9075 4.78955 15.9882 4.61514 16.1318 4.48654C16.2755 4.35795 16.4703 4.2857 16.6735 4.2857C16.8766 4.2857 17.0715 4.35795 17.2151 4.48654C17.3588 4.61514 17.4395 4.78955 17.4395 4.97142ZM5.18334 7.71427C5.18334 7.53241 5.26404 7.358 5.4077 7.2294C5.55135 7.1008 5.74619 7.02856 5.94935 7.02856C6.15251 7.02856 6.34734 7.1008 6.491 7.2294C6.63465 7.358 6.71536 7.53241 6.71536 7.71427V14.5714C6.71536 14.7533 6.63465 14.9277 6.491 15.0563C6.34734 15.1849 6.15251 15.2571 5.94935 15.2571C5.74619 15.2571 5.55135 15.1849 5.4077 15.0563C5.26404 14.9277 5.18334 14.7533 5.18334 14.5714V7.71427ZM15.9075 13.8857V13.2C15.9075 12.6544 16.1496 12.1312 16.5805 11.7454C17.0115 11.3596 17.596 11.1428 18.2055 11.1428H21.2695C21.879 11.1428 22.4635 11.3596 22.8945 11.7454C23.3254 12.1312 23.5676 12.6544 23.5676 13.2V13.8857H24.3336C24.943 13.8857 25.5275 14.1024 25.9585 14.4882C26.3895 14.874 26.6316 15.3973 26.6316 15.9428V18H23.5676V17.3143C23.5676 17.1324 23.4868 16.958 23.3432 16.8294C23.1995 16.7008 23.0047 16.6286 22.8015 16.6286C22.5984 16.6286 22.4035 16.7008 22.2599 16.8294C22.1162 16.958 22.0355 17.1324 22.0355 17.3143V18H17.4395V17.3143C17.4395 17.1324 17.3588 16.958 17.2151 16.8294C17.0715 16.7008 16.8766 16.6286 16.6735 16.6286C16.4703 16.6286 16.2755 16.7008 16.1318 16.8294C15.9882 16.958 15.9075 17.1324 15.9075 17.3143V18H12.8434V15.9428C12.8434 15.3973 13.0855 14.874 13.5165 14.4882C13.9475 14.1024 14.532 13.8857 15.1415 13.8857H15.9075ZM17.4395 13.2V13.8857H22.0355V13.2C22.0355 13.0181 21.9548 12.8437 21.8112 12.7151C21.6675 12.5865 21.4727 12.5143 21.2695 12.5143H18.2055C18.0023 12.5143 17.8075 12.5865 17.6638 12.7151C17.5202 12.8437 17.4395 13.0181 17.4395 13.2ZM23.5676 19.3714H26.6316V21.4286C26.6316 21.9741 26.3895 22.4974 25.9585 22.8832C25.5275 23.269 24.943 23.4857 24.3336 23.4857H15.1415C14.532 23.4857 13.9475 23.269 13.5165 22.8832C13.0855 22.4974 12.8434 21.9741 12.8434 21.4286V19.3714H15.9075V20.0571C15.9075 20.239 15.9882 20.4134 16.1318 20.542C16.2755 20.6706 16.4703 20.7428 16.6735 20.7428C16.8766 20.7428 17.0715 20.6706 17.2151 20.542C17.3588 20.4134 17.4395 20.239 17.4395 20.0571V19.3714H22.0355V20.0571C22.0355 20.239 22.1162 20.4134 22.2599 20.542C22.4035 20.6706 22.5984 20.7428 22.8015 20.7428C23.0047 20.7428 23.1995 20.6706 23.3432 20.542C23.4868 20.4134 23.5676 20.239 23.5676 20.0571V19.3714Z" fill="#7B61FF"/>
</svg>
