<svg width="14" height="14" viewBox="0 0 14 14" fill="none" xmlns="http://www.w3.org/2000/svg">
<path d="M11.25 0V1.5H12V4.5C12 5.09674 11.763 5.66903 11.341 6.09099C10.919 6.51295 10.3467 6.75 9.75 6.75C9.15327 6.75 8.58097 6.51295 8.15901 6.09099C7.73706 5.66903 7.5 5.09674 7.5 4.5V1.5H8.25V0H6V4.5C6.00113 5.36406 6.30013 6.20131 6.84661 6.87062C7.39309 7.53992 8.15362 8.00033 9 8.17425V9C9 9.79565 8.68393 10.5587 8.12132 11.1213C7.55871 11.6839 6.79565 12 6 12C5.20435 12 4.44129 11.6839 3.87868 11.1213C3.31608 10.5587 3 9.79565 3 9V7.362C3.50042 7.18508 3.92217 6.83695 4.19073 6.37914C4.45929 5.92133 4.55735 5.38332 4.4676 4.8602C4.37785 4.33708 4.10605 3.86253 3.70025 3.52042C3.29445 3.17831 2.78077 2.99068 2.25 2.99068C1.71924 2.99068 1.20556 3.17831 0.79976 3.52042C0.393958 3.86253 0.122161 4.33708 0.0324079 4.8602C-0.0573456 5.38332 0.0407233 5.92133 0.309281 6.37914C0.577839 6.83695 0.999594 7.18508 1.5 7.362V9C1.5 10.1935 1.97411 11.3381 2.81802 12.182C3.66194 13.0259 4.80653 13.5 6 13.5C7.19348 13.5 8.33807 13.0259 9.18199 12.182C10.0259 11.3381 10.5 10.1935 10.5 9V8.17425C11.3464 8.00033 12.1069 7.53992 12.6534 6.87062C13.1999 6.20131 13.4989 5.36406 13.5 4.5V0H11.25ZM2.25 4.5C2.39834 4.5 2.54335 4.54399 2.66668 4.6264C2.79002 4.70881 2.88615 4.82594 2.94291 4.96299C2.99968 5.10003 3.01453 5.25083 2.98559 5.39632C2.95665 5.5418 2.88522 5.67544 2.78033 5.78033C2.67545 5.88522 2.54181 5.95665 2.39632 5.98559C2.25084 6.01453 2.10004 5.99968 1.96299 5.94291C1.82595 5.88614 1.70881 5.79001 1.6264 5.66668C1.54399 5.54334 1.5 5.39834 1.5 5.25C1.5 5.05109 1.57902 4.86032 1.71967 4.71967C1.86033 4.57902 2.05109 4.5 2.25 4.5Z" fill="white"/>
</svg>
