<svg width="21" height="21" viewBox="0 0 21 21" fill="none" xmlns="http://www.w3.org/2000/svg">
<path d="M19.825 5.45H13.425V2.625C13.425 2.1825 13.0675 1.825 12.625 1.825H2.425V0.825C2.425 0.715 2.335 0.625 2.225 0.625H0.825C0.715 0.625 0.625 0.715 0.625 0.825V20.425C0.625 20.535 0.715 20.625 0.825 20.625H2.225C2.335 20.625 2.425 20.535 2.425 20.425V13.825H8.625V16.65C8.625 17.0925 8.9825 17.45 9.425 17.45H19.825C20.2675 17.45 20.625 17.0925 20.625 16.65V6.25C20.625 5.8075 20.2675 5.45 19.825 5.45ZM2.425 12.025V3.625H11.625V12.025H2.425ZM18.825 15.65H10.425V13.825H13.225C13.335 13.825 13.425 13.735 13.425 13.625V7.25H18.825V15.65Z" fill="#79747E"/>
</svg>
