<svg width="24" height="24" viewBox="0 0 24 24" fill="none" xmlns="http://www.w3.org/2000/svg">
<path d="M22.8105 13.0605C23.0917 12.7792 23.2497 12.3977 23.2497 12C23.2497 11.6023 23.0917 11.2208 22.8105 10.9395L18.4703 6.59925L20.6453 4.45275C20.9661 4.53262 21.3043 4.50436 21.6074 4.37238C21.9105 4.2404 22.1616 4.01207 22.3217 3.72281C22.4818 3.43355 22.5419 3.09955 22.4928 2.77261C22.4437 2.44568 22.288 2.1441 22.05 1.91466C21.812 1.68522 21.5049 1.54076 21.1763 1.50369C20.8478 1.46662 20.5162 1.53901 20.2331 1.70962C19.9499 1.88024 19.7309 2.13955 19.6102 2.44732C19.4894 2.75508 19.4736 3.09409 19.5653 3.41175L17.4098 5.53875L13.0605 1.18875C12.7792 0.907546 12.3977 0.749573 12 0.749573C11.6023 0.749573 11.2208 0.907546 10.9395 1.18875L6.59925 5.5305L4.45275 3.354C4.5322 3.03312 4.50353 2.69498 4.37119 2.39205C4.23885 2.08912 4.01024 1.83833 3.72082 1.67858C3.43141 1.51884 3.09736 1.45907 2.77051 1.50856C2.44366 1.55804 2.14227 1.714 1.9131 1.95226C1.68394 2.19051 1.53981 2.49773 1.50306 2.82626C1.46632 3.15479 1.53903 3.48626 1.7099 3.76925C1.88077 4.05224 2.14026 4.27093 2.4481 4.3914C2.75595 4.51186 3.09495 4.52736 3.4125 4.4355L5.53875 6.59025L1.18875 10.9395C0.907546 11.2208 0.749573 11.6023 0.749573 12C0.749573 12.3977 0.907546 12.7792 1.18875 13.0605L5.53875 17.4098L3.4125 19.5645C3.09562 19.4732 2.75747 19.489 2.45048 19.6095C2.1435 19.7299 1.88481 19.9482 1.71452 20.2306C1.54423 20.513 1.47184 20.8437 1.50859 21.1714C1.54534 21.4992 1.68916 21.8056 1.91776 22.0433C2.14637 22.2809 2.44699 22.4366 2.77303 22.486C3.09906 22.5355 3.43231 22.476 3.72111 22.3168C4.00992 22.1576 4.23814 21.9076 4.37042 21.6055C4.5027 21.3035 4.53164 20.9662 4.45275 20.646L6.59925 18.471L10.9395 22.8105C11.2208 23.0917 11.6023 23.2497 12 23.2497C12.3977 23.2497 12.7792 23.0917 13.0605 22.8105L17.4105 18.4613L19.5645 20.5883C19.4732 20.9051 19.489 21.2433 19.6095 21.5503C19.7299 21.8573 19.9482 22.1159 20.2306 22.2862C20.513 22.4565 20.8437 22.5289 21.1714 22.4922C21.4992 22.4554 21.8056 22.3116 22.0433 22.083C22.2809 21.8544 22.4366 21.5538 22.486 21.2277C22.5355 20.9017 22.476 20.5684 22.3168 20.2796C22.1576 19.9908 21.9076 19.7626 21.6055 19.6303C21.3035 19.4981 20.9662 19.4691 20.646 19.548L18.471 17.4008L22.8105 13.0605ZM12 21.75L2.25 12L12 2.25L21.75 12L12 21.75Z" fill="#79747E"/>
</svg>
