<svg width="22" height="22" viewBox="0 0 22 22" fill="none" xmlns="http://www.w3.org/2000/svg">
<path d="M19.25 11.1406H10.8594V2.75C10.8594 2.64687 10.775 2.5625 10.6719 2.5625H10.0625C8.83134 2.56048 7.61192 2.80193 6.47441 3.27294C5.3369 3.74395 4.30374 4.43524 3.43439 5.30703C2.57824 6.16054 1.89607 7.17225 1.4258 8.28594C0.936433 9.44103 0.685322 10.683 0.687514 11.9375C0.685498 13.1687 0.926942 14.3881 1.39796 15.5256C1.86897 16.6631 2.56026 17.6963 3.43205 18.5656C4.2922 19.4258 5.29533 20.1031 6.41095 20.5742C7.56604 21.0636 8.80804 21.3147 10.0625 21.3125C11.2937 21.3145 12.5131 21.0731 13.6506 20.6021C14.7881 20.1311 15.8213 19.4398 16.6906 18.568C17.5508 17.7078 18.2281 16.7047 18.6992 15.5891C19.1886 14.434 19.4397 13.192 19.4375 11.9375V11.3281C19.4375 11.225 19.3531 11.1406 19.25 11.1406ZM15.5399 17.4641C14.8141 18.1842 13.9534 18.754 13.0071 19.1409C12.0607 19.5278 11.0474 19.7242 10.025 19.7188C7.96017 19.7094 6.01955 18.9008 4.55939 17.4406C3.08986 15.9711 2.28126 14.0164 2.28126 11.9375C2.28126 9.8586 3.08986 7.90391 4.55939 6.43438C5.83908 5.15469 7.48673 4.37422 9.26564 4.19609V12.7344H17.8039C17.6235 14.5227 16.836 16.1797 15.5399 17.4641ZM21.3125 9.8375L21.2516 9.17657C21.0524 7.01797 20.0938 4.98125 18.5516 3.44375C17.0083 1.90343 14.9758 0.950148 12.8047 0.748432L12.1414 0.687495C12.0313 0.67812 11.9375 0.762495 11.9375 0.872651V9.875C11.9375 9.97813 12.0219 10.0625 12.125 10.0625L21.125 10.0391C21.2352 10.0391 21.3219 9.94532 21.3125 9.8375ZM13.5266 8.47344V2.45937C15.003 2.76839 16.3579 3.49957 17.4266 4.56406C18.4977 5.63281 19.2313 6.99219 19.536 8.45703L13.5266 8.47344Z" fill="#79747E"/>
</svg>
