<svg width="20" height="20" viewBox="0 0 20 20" fill="none" xmlns="http://www.w3.org/2000/svg">
<path d="M0.399902 3.40002C0.399902 2.60438 0.715973 1.84131 1.27858 1.2787C1.84119 0.716095 2.60425 0.400024 3.3999 0.400024H16.5999C17.3956 0.400024 18.1586 0.716095 18.7212 1.2787C19.2838 1.84131 19.5999 2.60438 19.5999 3.40002V16.6C19.5999 17.3957 19.2838 18.1587 18.7212 18.7213C18.1586 19.284 17.3956 19.6 16.5999 19.6H3.3999C2.60425 19.6 1.84119 19.284 1.27858 18.7213C0.715973 18.1587 0.399902 17.3957 0.399902 16.6V3.40002ZM3.3999 1.60002C2.92251 1.60002 2.46468 1.78967 2.12711 2.12723C1.78954 2.4648 1.5999 2.92263 1.5999 3.40002V16.6C1.5999 17.0774 1.78954 17.5353 2.12711 17.8728C2.46468 18.2104 2.92251 18.4 3.3999 18.4H16.5999C17.0773 18.4 17.5351 18.2104 17.8727 17.8728C18.2103 17.5353 18.3999 17.0774 18.3999 16.6V3.40002C18.3999 2.92263 18.2103 2.4648 17.8727 2.12723C17.5351 1.78967 17.0773 1.60002 16.5999 1.60002H3.3999ZM11.1999 12.4C11.1999 12.0818 11.3263 11.7765 11.5514 11.5515C11.7764 11.3265 12.0816 11.2 12.3999 11.2H14.7999C15.1182 11.2 15.4234 11.3265 15.6484 11.5515C15.8735 11.7765 15.9999 12.0818 15.9999 12.4V14.8C15.9999 15.1183 15.8735 15.4235 15.6484 15.6486C15.4234 15.8736 15.1182 16 14.7999 16H12.3999C12.0816 16 11.7764 15.8736 11.5514 15.6486C11.3263 15.4235 11.1999 15.1183 11.1999 14.8V12.4ZM11.1999 5.20002C11.1999 4.88176 11.3263 4.57654 11.5514 4.3515C11.7764 4.12645 12.0816 4.00002 12.3999 4.00002H14.7999C15.1182 4.00002 15.4234 4.12645 15.6484 4.3515C15.8735 4.57654 15.9999 4.88176 15.9999 5.20002V7.60002C15.9999 7.91828 15.8735 8.22351 15.6484 8.44855C15.4234 8.6736 15.1182 8.80002 14.7999 8.80002H12.3999C12.0816 8.80002 11.7764 8.6736 11.5514 8.44855C11.3263 8.22351 11.1999 7.91828 11.1999 7.60002V5.20002ZM3.9999 12.4C3.9999 12.0818 4.12633 11.7765 4.35137 11.5515C4.57642 11.3265 4.88164 11.2 5.1999 11.2H7.5999C7.91816 11.2 8.22339 11.3265 8.44843 11.5515C8.67347 11.7765 8.7999 12.0818 8.7999 12.4V14.8C8.7999 15.1183 8.67347 15.4235 8.44843 15.6486C8.22339 15.8736 7.91816 16 7.5999 16H5.1999C4.88164 16 4.57642 15.8736 4.35137 15.6486C4.12633 15.4235 3.9999 15.1183 3.9999 14.8V12.4ZM3.9999 5.20002C3.9999 4.88176 4.12633 4.57654 4.35137 4.3515C4.57642 4.12645 4.88164 4.00002 5.1999 4.00002H7.5999C7.91816 4.00002 8.22339 4.12645 8.44843 4.3515C8.67347 4.57654 8.7999 4.88176 8.7999 5.20002V7.60002C8.7999 7.91828 8.67347 8.22351 8.44843 8.44855C8.22339 8.6736 7.91816 8.80002 7.5999 8.80002H5.1999C4.88164 8.80002 4.57642 8.6736 4.35137 8.44855C4.12633 8.22351 3.9999 7.91828 3.9999 7.60002V5.20002Z" fill="#79747E"/>
</svg>
