<svg width="20" height="21" viewBox="0 0 20 21" fill="none" xmlns="http://www.w3.org/2000/svg">
<path d="M12.2222 2.14099C12.2529 2.10219 12.291 2.06984 12.3342 2.04581C12.3774 2.02177 12.425 2.00653 12.4741 2.00095C12.5233 1.99537 12.573 1.99957 12.6206 2.01331C12.6681 2.02705 12.7124 2.05005 12.751 2.08099L13.561 2.73049L10.5992 6.49999H12.5072L14.7333 3.66799L16.6112 5.17249C16.6506 5.204 16.6832 5.24311 16.7071 5.2875C16.731 5.33189 16.7457 5.38065 16.7503 5.43084C16.7549 5.48104 16.7494 5.53166 16.734 5.57966C16.7186 5.62767 16.6937 5.67208 16.6608 5.71024L15.9797 6.49999H17.9403C18.1985 6.10981 18.3015 5.63718 18.229 5.17493C18.1566 4.71269 17.9139 4.29423 17.5487 4.00174L13.6885 0.910238C13.4957 0.755842 13.2742 0.641073 13.0369 0.572528C12.7995 0.503982 12.551 0.483011 12.3055 0.510819C12.0601 0.538627 11.8225 0.614666 11.6066 0.734566C11.3906 0.854467 11.2004 1.01587 11.047 1.20949L6.85675 6.49999H8.77L12.2222 2.14099ZM13.75 13.25C13.5511 13.25 13.3603 13.329 13.2197 13.4697C13.079 13.6103 13 13.8011 13 14C13 14.1989 13.079 14.3897 13.2197 14.5303C13.3603 14.671 13.5511 14.75 13.75 14.75H16C16.1989 14.75 16.3897 14.671 16.5303 14.5303C16.671 14.3897 16.75 14.1989 16.75 14C16.75 13.8011 16.671 13.6103 16.5303 13.4697C16.3897 13.329 16.1989 13.25 16 13.25H13.75ZM2.5 4.24999C1.90326 4.24999 1.33097 4.48704 0.90901 4.909C0.487053 5.33096 0.25 5.90325 0.25 6.49999V17.375C0.25 18.2701 0.605579 19.1285 1.23851 19.7615C1.87145 20.3944 2.72989 20.75 3.625 20.75H16.375C17.2701 20.75 18.1285 20.3944 18.7615 19.7615C19.3944 19.1285 19.75 18.2701 19.75 17.375V10.625C19.75 9.72988 19.3944 8.87144 18.7615 8.2385C18.1285 7.60557 17.2701 7.24999 16.375 7.24999H2.5C2.30109 7.24999 2.11032 7.17097 1.96967 7.03032C1.82902 6.88967 1.75 6.6989 1.75 6.49999C1.75 6.30108 1.82902 6.11031 1.96967 5.96966C2.11032 5.82901 2.30109 5.74999 2.5 5.74999H5.935L7.132 4.24999H2.5ZM1.75 17.375V8.62249C1.98475 8.70499 2.2375 8.74999 2.5 8.74999H16.375C16.8723 8.74999 17.3492 8.94753 17.7008 9.29916C18.0525 9.65079 18.25 10.1277 18.25 10.625V17.375C18.25 17.8723 18.0525 18.3492 17.7008 18.7008C17.3492 19.0524 16.8723 19.25 16.375 19.25H3.625C3.12772 19.25 2.65081 19.0524 2.29917 18.7008C1.94754 18.3492 1.75 17.8723 1.75 17.375Z" fill="#79747E"/>
</svg>
