<svg width="14" height="14" viewBox="0 0 14 14" fill="none" xmlns="http://www.w3.org/2000/svg">
<path d="M0.335928 13.6667L1.23726 10.3547C0.643353 9.33661 0.331325 8.1787 0.333261 7.00004C0.333261 3.31804 3.31793 0.333374 6.99993 0.333374C10.6819 0.333374 13.6666 3.31804 13.6666 7.00004C13.6666 10.682 10.6819 13.6667 6.99993 13.6667C5.82178 13.6686 4.66437 13.3568 3.64659 12.7634L0.335928 13.6667ZM4.59393 3.87204C4.50784 3.87739 4.42371 3.90006 4.34659 3.93871C4.27428 3.97966 4.20826 4.03086 4.15059 4.09071C4.07059 4.16604 4.02526 4.23137 3.97659 4.29471C3.7302 4.61537 3.59767 5.00899 3.59993 5.41337C3.60126 5.74004 3.68659 6.05804 3.81993 6.35537C4.09259 6.95671 4.54126 7.59337 5.13393 8.18337C5.27659 8.32537 5.41593 8.46804 5.56593 8.60071C6.30152 9.24835 7.1781 9.7154 8.12593 9.96471L8.50526 10.0227C8.62859 10.0294 8.75193 10.02 8.87593 10.014C9.07009 10.004 9.25967 9.95145 9.43126 9.86004C9.51856 9.81507 9.60376 9.76613 9.68659 9.71337C9.68659 9.71337 9.71526 9.69471 9.76993 9.65337C9.85993 9.58671 9.91526 9.53937 9.98993 9.46137C10.0453 9.40404 10.0933 9.33671 10.1299 9.26004C10.1819 9.15137 10.2339 8.94404 10.2553 8.77137C10.2713 8.63937 10.2666 8.56737 10.2646 8.52271C10.2619 8.45137 10.2026 8.37737 10.1379 8.34604L9.74993 8.17204C9.74993 8.17204 9.16993 7.91937 8.81593 7.75804C8.7786 7.74177 8.7386 7.73251 8.69793 7.73071C8.65231 7.72602 8.60623 7.73116 8.56276 7.74576C8.5193 7.76036 8.47946 7.7841 8.44593 7.81537V7.81404C8.44259 7.81404 8.39793 7.85204 7.91593 8.43604C7.88826 8.47322 7.85016 8.50131 7.80646 8.51674C7.76277 8.53218 7.71547 8.53426 7.67059 8.52271C7.62716 8.51109 7.5846 8.49639 7.54326 8.47871C7.46059 8.44404 7.43193 8.43071 7.37526 8.40604L7.37193 8.40471C6.99053 8.23819 6.63741 8.01327 6.32526 7.73804C6.24126 7.66471 6.16326 7.58471 6.08326 7.50737C5.82098 7.2562 5.5924 6.97205 5.40326 6.66204L5.36393 6.59871C5.33568 6.55615 5.31283 6.51024 5.29593 6.46204C5.27059 6.36404 5.33659 6.28537 5.33659 6.28537C5.33659 6.28537 5.49859 6.10804 5.57393 6.01204C5.63665 5.93226 5.69518 5.84925 5.74926 5.76337C5.82793 5.63671 5.85259 5.50671 5.81126 5.40604C5.62459 4.95004 5.43126 4.49604 5.23259 4.04537C5.19326 3.95604 5.07659 3.89204 4.97059 3.87937C4.93459 3.87537 4.89859 3.87137 4.86259 3.86871C4.77307 3.86426 4.68335 3.86515 4.59393 3.87137V3.87204Z" fill="white"/>
</svg>
