<svg width="16" height="12" viewBox="0 0 16 12" fill="none" xmlns="http://www.w3.org/2000/svg">
<path d="M15.6666 2.33797C15.576 2.01479 15.3995 1.7222 15.1559 1.4913C14.9054 1.25331 14.5985 1.08306 14.2639 0.996636C13.0119 0.666636 7.99592 0.666636 7.99592 0.666636C5.90481 0.642844 3.81421 0.747486 1.73592 0.979969C1.40138 1.07278 1.09497 1.24683 0.843923 1.48664C0.597256 1.72397 0.41859 2.01664 0.325256 2.3373C0.101052 3.54513 -0.00788215 4.77153 -7.68258e-05 5.99997C-0.00807683 7.2273 0.10059 8.4533 0.325256 9.66264C0.41659 9.98197 0.59459 10.2733 0.841923 10.5086C1.08926 10.744 1.39726 10.914 1.73592 11.004C3.00459 11.3333 7.99592 11.3333 7.99592 11.3333C10.0897 11.3571 12.183 11.2525 14.2639 11.02C14.5985 10.9335 14.9054 10.7633 15.1559 10.5253C15.3994 10.2945 15.5757 10.0018 15.6659 9.67864C15.896 8.47127 16.0078 7.24436 15.9999 6.0153C16.0172 4.78104 15.9055 3.54835 15.6666 2.3373V2.33797ZM6.40126 8.28264V3.71797L10.5746 6.00064L6.40126 8.28264Z" fill="white"/>
</svg>
